<svg aria-hidden="true" style="position:absolute;width:0;height:0" xmlns="http://www.w3.org/2000/svg" overflow="hidden"><defs><symbol id="icon-comment" viewBox="0 0 32 32"><path d="M8 18.667h16v-2H8v2zm0-4.334h16v-2H8v2zM8 10h16V8H8v2zm21.333 19.333L24 24H4.667q-.8 0-1.4-.6t-.6-1.4V4.667q0-.8.6-1.4t1.4-.6h22.667q.8 0 1.4.6t.6 1.4v24.667zM4.667 22h20.2l2.467 2.667v-20H4.667V22zm0 0z"/></symbol><symbol id="icon-person" viewBox="0 0 32 32"><path d="M16 15.967q-2.2 0-3.6-1.4t-1.4-3.6 1.4-3.6 3.6-1.4 3.6 1.4 1.4 3.6-1.4 3.6-3.6 1.4zm-10.667 10.7v-3.133q0-1.267.633-2.167T7.599 20q2.233-1 4.283-1.5t4.117-.5 4.1.517 4.264 1.49q1.043.471 1.673 1.366t.63 2.161v3.133H5.333zm2-2h17.333v-1.133q0-.533-.317-1.017t-.783-.717q-2.133-1.033-3.9-1.417T15.999 20t-3.7.383-3.9 1.417q-.467.233-.767.717t-.3 1.017v1.133zM16 13.967q1.3 0 2.15-.85t.85-2.15-.85-2.15-2.15-.85-2.15.85-.85 2.15.85 2.15 2.15.85z"/></symbol><symbol id="icon-Vector-1" viewBox="0 0 22 32"><path fill="none" stroke="var(--color1, #646464)" stroke-width="6.4" d="M19.2 3.2L6.4 16l12.8 12.8"/></symbol><symbol id="icon-phone" viewBox="0 0 32 32"><path d="M26.5 28q-3.867 0-7.883-1.867t-7.45-5.3-5.3-7.45T4 5.5q0-.643.429-1.071T5.5 4h4.667q.467 0 .8.333t.467.833l.898 4.188q.069.479-.014.862t-.358.658l-3.326 3.359q.867 1.467 1.833 2.733t2.133 2.4q1.233 1.267 2.6 2.317t2.867 1.85l3.167-3.267q.333-.367.772-.5t.862-.067l3.967.867q.5.133.833.535t.333.899v4.5q0 .643-.429 1.071T26.501 28zM7.633 12.4l2.7-2.733L9.566 6H5.999q.067 1.4.45 2.95t1.183 3.45zm12.3 12.1q1.367.633 2.967 1.033T26 26v-3.567l-3.433-.7-2.633 2.767z"/></symbol><symbol id="icon-mail" viewBox="0 0 32 32"><path d="M4.667 26.667q-.8 0-1.4-.6t-.6-1.4V7.334q0-.8.6-1.4t1.4-.6h22.667q.8 0 1.4.6t.6 1.4v17.333q0 .8-.6 1.4t-1.4.6H4.667zM16 16.6L4.667 9.167v15.5h22.667v-15.5L16.001 16.6zm0-2l11.2-7.267H4.833L16 14.6zM4.667 9.167z"/></symbol><symbol id="icon-building" viewBox="0 0 32 32"><path d="M4 28V9.5h5.5V4h13v11H28v13H17.767v-5.5h-3.533V28H4.001zm2-2h3.5v-3.5H6V26zm0-5.5h3.5V17H6v3.5zM6 15h3.5v-3.5H6V15zm5.5 5.5H15V17h-3.5v3.5zm0-5.5H15v-3.5h-3.5V15zm0-5.5H15V6h-3.5v3.5zm5.5 11h3.5V17H17v3.5zm0-5.5h3.5v-3.5H17V15zm0-5.5h3.5V6H17v3.5zM22.5 26H26v-3.5h-3.5V26zm0-5.5H26V17h-3.5v3.5z"/></symbol><symbol id="icon-remodeling" viewBox="0 0 32 32"><path d="M16 22.667q-2.433 0-4.25-1.517t-2.283-3.817h2.067q.433 1.467 1.65 2.4t2.817.933q1.933 0 3.3-1.367t1.367-3.3-1.367-3.3-3.3-1.367q-.967 0-1.8.35t-1.467.983h1.933v2H9.334V9.332h2v1.9q.9-.867 2.1-1.383t2.567-.517q2.767 0 4.717 1.95t1.95 4.717-1.95 4.717-4.717 1.95zM6 28q-.8 0-1.4-.6T4 26v-5.733h2V26h5.733v2H6zm14.267 0v-2H26v-5.733h2V26q0 .8-.6 1.4T26 28h-5.733zM4 11.733V6q0-.8.6-1.4T6 4h5.733v2H6v5.733H4zm22 0V6h-5.733V4H26q.8 0 1.4.6T28 6v5.733h-2z"/></symbol><symbol id="icon-check" viewBox="0 0 32 32"><path d="M12.6 23.8l-7.467-7.467L6.566 14.9l6.033 6.033 12.8-12.8 1.433 1.433-14.233 14.233z"/></symbol><symbol id="icon-open-in-new" viewBox="0 0 32 32"><path d="M6.667 28q-1.1 0-1.883-.783t-.783-1.883V6.667q0-1.1.783-1.883t1.883-.783H16v2.667H6.667v18.667h18.667v-9.333h2.667v9.333q0 1.1-.783 1.883t-1.883.783H6.668zm6.266-7.067l-1.867-1.867 12.4-12.4h-4.8V3.999h9.333v9.333h-2.667v-4.8l-12.4 12.4z"/></symbol></defs></svg>