<svg aria-hidden="true" style="position: absolute; width: 0; height: 0; overflow: hidden;" version="1.1"
    xmlns="http://www.w3.org/2000/svg"
    xmlns:xlink="http://www.w3.org/1999/xlink">
    <defs>
        <symbol id="icon-building" viewBox="0 0 32 32">
            <path d="M4 28v-18.5h5.5v-5.5h13v11h5.5v13h-10.233v-5.5h-3.533v5.5h-10.233zM6 26h3.5v-3.5h-3.5v3.5zM6 20.5h3.5v-3.5h-3.5v3.5zM6 15h3.5v-3.5h-3.5v3.5zM11.5 20.5h3.5v-3.5h-3.5v3.5zM11.5 15h3.5v-3.5h-3.5v3.5zM11.5 9.5h3.5v-3.5h-3.5v3.5zM17 20.5h3.5v-3.5h-3.5v3.5zM17 15h3.5v-3.5h-3.5v3.5zM17 9.5h3.5v-3.5h-3.5v3.5zM22.5 26h3.5v-3.5h-3.5v3.5zM22.5 20.5h3.5v-3.5h-3.5v3.5z"></path>
        </symbol>
        <symbol id="icon-remodeling" viewBox="0 0 32 32">
            <path d="M16 22.667q-2.433 0-4.25-1.517t-2.283-3.817h2.067q0.433 1.467 1.65 2.4t2.817 0.933q1.933 0 3.3-1.367t1.367-3.3-1.367-3.3-3.3-1.367q-0.967 0-1.8 0.35t-1.467 0.983h1.933v2h-5.333v-5.333h2v1.9q0.9-0.867 2.1-1.383t2.567-0.517q2.767 0 4.717 1.95t1.95 4.717-1.95 4.717-4.717 1.95zM6 28q-0.8 0-1.4-0.6t-0.6-1.4v-5.733h2v5.733h5.733v2h-5.733zM20.267 28v-2h5.733v-5.733h2v5.733q0 0.8-0.6 1.4t-1.4 0.6h-5.733zM4 11.733v-5.733q0-0.8 0.6-1.4t1.4-0.6h5.733v2h-5.733v5.733h-2zM26 11.733v-5.733h-5.733v-2h5.733q0.8 0 1.4 0.6t0.6 1.4v5.733h-2z"></path>
        </symbol>
        <symbol id="icon-check" viewBox="0 0 32 32">
            <path d="M12.6 23.8l-7.467-7.467 1.433-1.433 6.033 6.033 12.8-12.8 1.433 1.433-14.233 14.233z"></path>
        </symbol>
        <symbol id="icon-open-in-new" viewBox="0 0 32 32">
            <path d="M6.667 28q-1.1 0-1.883-0.783t-0.783-1.883v-18.667q0-1.1 0.783-1.883t1.883-0.783h9.333v2.667h-9.333v18.667h18.667v-9.333h2.667v9.333q0 1.1-0.783 1.883t-1.883 0.783h-18.667zM12.933 20.933l-1.867-1.867 12.4-12.4h-4.8v-2.667h9.333v9.333h-2.667v-4.8l-12.4 12.4z"></path>
        </symbol>
    </defs>
</svg>
