<svg aria-hidden="true" style="position: absolute; width: 0; height: 0; overflow: hidden;" version="1.1" xmlns="http://www.w3.org/2000/svg" xmlns:xlink="http://www.w3.org/1999/xlink">
<defs>
<symbol id="icon-comment" viewBox="0 0 32 32">
<path d="M8 18.667h16v-2h-16v2zM8 14.333h16v-2h-16v2zM8 10h16v-2h-16v2zM29.333 29.333l-5.333-5.333h-19.333q-0.8 0-1.4-0.6t-0.6-1.4v-17.333q0-0.8 0.6-1.4t1.4-0.6h22.667q0.8 0 1.4 0.6t0.6 1.4v24.667zM4.667 22h20.2l2.467 2.667v-20h-22.667v17.333zM4.667 22v0z"></path>
</symbol>
<symbol id="icon-person" viewBox="0 0 32 32">
<path d="M16 15.967q-2.2 0-3.6-1.4t-1.4-3.6 1.4-3.6 3.6-1.4 3.6 1.4 1.4 3.6-1.4 3.6-3.6 1.4zM5.333 26.667v-3.133q0-1.267 0.633-2.167t1.633-1.367q2.233-1 4.283-1.5t4.117-0.5 4.1 0.517 4.264 1.49q1.043 0.471 1.673 1.366t0.63 2.161v3.133h-21.333zM7.333 24.667h17.333v-1.133q0-0.533-0.317-1.017t-0.783-0.717q-2.133-1.033-3.9-1.417t-3.667-0.383-3.7 0.383-3.9 1.417q-0.467 0.233-0.767 0.717t-0.3 1.017v1.133zM16 13.967q1.3 0 2.15-0.85t0.85-2.15-0.85-2.15-2.15-0.85-2.15 0.85-0.85 2.15 0.85 2.15 2.15 0.85z"></path>
</symbol>
<symbol id="icon-Vector-1" viewBox="0 0 22 32">
<path fill="none" stroke="#646464" style="stroke: var(--color1, #646464)" stroke-linejoin="miter" stroke-linecap="butt" stroke-miterlimit="4" stroke-width="6.4" d="M19.2 3.2l-12.8 12.8 12.8 12.8"></path>
</symbol>
<symbol id="icon-phone" viewBox="0 0 32 32">
<path d="M26.5 28q-3.867 0-7.883-1.867t-7.45-5.3-5.3-7.45-1.867-7.883q0-0.643 0.429-1.071t1.071-0.429h4.667q0.467 0 0.8 0.333t0.467 0.833l0.898 4.188q0.069 0.479-0.014 0.862t-0.358 0.658l-3.326 3.359q0.867 1.467 1.833 2.733t2.133 2.4q1.233 1.267 2.6 2.317t2.867 1.85l3.167-3.267q0.333-0.367 0.772-0.5t0.862-0.067l3.967 0.867q0.5 0.133 0.833 0.535t0.333 0.899v4.5q0 0.643-0.429 1.071t-1.071 0.429zM7.633 12.4l2.7-2.733-0.767-3.667h-3.567q0.067 1.4 0.45 2.95t1.183 3.45zM19.933 24.5q1.367 0.633 2.967 1.033t3.1 0.467v-3.567l-3.433-0.7-2.633 2.767z"></path>
</symbol>
<symbol id="icon-mail" viewBox="0 0 32 32">
<path d="M4.667 26.667q-0.8 0-1.4-0.6t-0.6-1.4v-17.333q0-0.8 0.6-1.4t1.4-0.6h22.667q0.8 0 1.4 0.6t0.6 1.4v17.333q0 0.8-0.6 1.4t-1.4 0.6h-22.667zM16 16.6l-11.333-7.433v15.5h22.667v-15.5l-11.333 7.433zM16 14.6l11.2-7.267h-22.367l11.167 7.267zM4.667 9.167v0z"></path>
</symbol>
<symbol id="icon-building" viewBox="0 0 32 32">
<path d="M4 28v-18.5h5.5v-5.5h13v11h5.5v13h-10.233v-5.5h-3.533v5.5h-10.233zM6 26h3.5v-3.5h-3.5v3.5zM6 20.5h3.5v-3.5h-3.5v3.5zM6 15h3.5v-3.5h-3.5v3.5zM11.5 20.5h3.5v-3.5h-3.5v3.5zM11.5 15h3.5v-3.5h-3.5v3.5zM11.5 9.5h3.5v-3.5h-3.5v3.5zM17 20.5h3.5v-3.5h-3.5v3.5zM17 15h3.5v-3.5h-3.5v3.5zM17 9.5h3.5v-3.5h-3.5v3.5zM22.5 26h3.5v-3.5h-3.5v3.5zM22.5 20.5h3.5v-3.5h-3.5v3.5z"></path>
</symbol>
<symbol id="icon-remodeling" viewBox="0 0 32 32">
<path d="M16 22.667q-2.433 0-4.25-1.517t-2.283-3.817h2.067q0.433 1.467 1.65 2.4t2.817 0.933q1.933 0 3.3-1.367t1.367-3.3-1.367-3.3-3.3-1.367q-0.967 0-1.8 0.35t-1.467 0.983h1.933v2h-5.333v-5.333h2v1.9q0.9-0.867 2.1-1.383t2.567-0.517q2.767 0 4.717 1.95t1.95 4.717-1.95 4.717-4.717 1.95zM6 28q-0.8 0-1.4-0.6t-0.6-1.4v-5.733h2v5.733h5.733v2h-5.733zM20.267 28v-2h5.733v-5.733h2v5.733q0 0.8-0.6 1.4t-1.4 0.6h-5.733zM4 11.733v-5.733q0-0.8 0.6-1.4t1.4-0.6h5.733v2h-5.733v5.733h-2zM26 11.733v-5.733h-5.733v-2h5.733q0.8 0 1.4 0.6t0.6 1.4v5.733h-2z"></path>
</symbol>
<symbol id="icon-check" viewBox="0 0 32 32">
<path d="M12.6 23.8l-7.467-7.467 1.433-1.433 6.033 6.033 12.8-12.8 1.433 1.433-14.233 14.233z"></path>
</symbol>
<symbol id="icon-open-in-new" viewBox="0 0 32 32">
<path d="M6.667 28q-1.1 0-1.883-0.783t-0.783-1.883v-18.667q0-1.1 0.783-1.883t1.883-0.783h9.333v2.667h-9.333v18.667h18.667v-9.333h2.667v9.333q0 1.1-0.783 1.883t-1.883 0.783h-18.667zM12.933 20.933l-1.867-1.867 12.4-12.4h-4.8v-2.667h9.333v9.333h-2.667v-4.8l-12.4 12.4z"></path>
</symbol>
</defs>
</svg>
